# xmcd
#
# Track frame offsets: 
#        150
#        12253
#        24667
#        37253
#        50910
#        65227
#        79855
#        91854
#        104775
#        118254
#        129796
#        139072
#        148344
#        159173
#        173925
#        185485
#        198871
#        212808
#        226319
#        240508
#
# Disc length: 3431 seconds
#
# Revision: 1
# Processed by: cddbd v1.5.2PL0 Copyright (c) Steve Scherf et al.
# Submitted via: ExactAudioCopyFreeDBPlugin 1.0
#
DISCID=270d6514
DTITLE=Various Artist - Cooler Than Ice:  Arctic Records and the Rise
DTITLE=of Philly Soul [box set]
DYEAR=2012
DGENRE=Soul
TTITLE0=Kenny Gamble - Don't Stop Loving Me
TTITLE1=Kenny Gamble - The Joke's on You
TTITLE2=The Lane Relations - If I Had a Hammer
TTITLE3=The Lane Relations - In the Dark
TTITLE4=The Volcanos - A Lady's Man
TTITLE5=Barbara Mason - Poor Girl in Trouble
TTITLE6=Barbara Mason - Hello Baby
TTITLE7=Kenny Gamble - Chains of Love
TTITLE8=Kenny Gamble - (I'll Just) Keep on Smilin'
TTITLE9=The Volcanos - You're Number 1
TTITLE10=The Lane Relations - The Blood - Part I
TTITLE11=The Lane Relations - The Blood - Part II
TTITLE12=The Temptones - Girl I Love You
TTITLE13=The Temptones - Good-Bye
TTITLE14=Kenny Hamber - Anything You Want
TTITLE15=Kenny Hamber - Ain't Gonna Cry (Over One Girl)
TTITLE16=Mary De Loach - Move This Thing, Part 1
TTITLE17=Mary De Loach - Move This Thing, Part 2
TTITLE18=The Brockington Chorale Ensemble - I Feel the Spirit Moving
TTITLE19=The Brockington Chorale Ensemble - He's There
EXTD=
EXTT0=
EXTT1=
EXTT2=
EXTT3=
EXTT4=
EXTT5=
EXTT6=
EXTT7=
EXTT8=
EXTT9=
EXTT10=
EXTT11=
EXTT12=
EXTT13=
EXTT14=
EXTT15=
EXTT16=
EXTT17=
EXTT18=
EXTT19=
PLAYORDER=
